<svg version="1.1" viewBox="0.0 0.0 513.1994750656168 261.6010498687664" fill="none" stroke="none" stroke-linecap="square" stroke-miterlimit="10" xmlns:xlink="http://www.w3.org/1999/xlink" xmlns="http://www.w3.org/2000/svg"><clipPath id="p.0"><path d="m0 0l513.19946 0l0 261.60104l-513.19946 0l0 -261.60104z" clip-rule="nonzero"/></clipPath><g clip-path="url(#p.0)"><path fill="#000000" fill-opacity="0.0" d="m0 0l513.19946 0l0 261.60104l-513.19946 0z" fill-rule="evenodd"/><path fill="#b7b7b7" d="m163.89764 137.1181l121.921265 0l0 21.826782l-121.921265 0z" fill-rule="evenodd"/><path stroke="#000000" stroke-width="1.0" stroke-linejoin="round" stroke-linecap="butt" d="m163.89764 137.1181l121.921265 0l0 21.826782l-121.921265 0z" fill-rule="evenodd"/><path fill="#000000" d="m191.4712 158.65462l2.796875 -13.375l1.515625 0l-0.28125 1.34375q0.84375 -0.875 1.515625 -1.21875q0.671875 -0.34375 1.421875 -0.34375q1.375 0 2.28125 1.015625q0.921875 1.0 0.921875 2.875q0 1.515625 -0.5 2.765625q-0.5 1.234375 -1.234375 2.0q-0.71875 0.75 -1.46875 1.109375q-0.75 0.34375 -1.53125 0.34375q-1.75 0 -2.703125 -1.765625l-1.09375 5.25l-1.640625 0zm3.25 -7.65625q0 1.078125 0.15625 1.5q0.234375 0.59375 0.75 0.96875q0.515625 0.359375 1.203125 0.359375q1.421875 0 2.296875 -1.59375q0.875 -1.609375 0.875 -3.28125q0 -1.21875 -0.59375 -1.890625q-0.578125 -0.671875 -1.453125 -0.671875q-0.625 0 -1.171875 0.34375q-0.53125 0.328125 -1.0 0.984375q-0.453125 0.65625 -0.765625 1.609375q-0.296875 0.953125 -0.296875 1.671875zm14.453842 2.75q-0.859375 0.734375 -1.65625 1.078125q-0.78125 0.34375 -1.6875 0.34375q-1.34375 0 -2.171875 -0.78125q-0.8125 -0.796875 -0.8125 -2.03125q0 -0.796875 0.375 -1.421875q0.375 -0.625 0.984375 -1.0q0.609375 -0.390625 1.484375 -0.546875q0.5625 -0.109375 2.109375 -0.171875q1.5625 -0.0625 2.234375 -0.328125q0.1875 -0.671875 0.1875 -1.125q0 -0.578125 -0.421875 -0.90625q-0.5625 -0.453125 -1.671875 -0.453125q-1.03125 0 -1.703125 0.46875q-0.65625 0.453125 -0.953125 1.296875l-1.671875 -0.140625q0.515625 -1.4375 1.609375 -2.203125q1.109375 -0.765625 2.796875 -0.765625q1.796875 0 2.84375 0.859375q0.796875 0.625 0.796875 1.65625q0 0.765625 -0.21875 1.796875l-0.53125 2.40625q-0.265625 1.140625 -0.265625 1.859375q0 0.453125 0.203125 1.3125l-1.671875 0q-0.125 -0.46875 -0.1875 -1.203125zm0.609375 -3.703125q-0.34375 0.140625 -0.75 0.21875q-0.390625 0.0625 -1.3125 0.15625q-1.4375 0.125 -2.03125 0.328125q-0.59375 0.1875 -0.90625 0.625q-0.296875 0.421875 -0.296875 0.9375q0 0.6875 0.484375 1.140625q0.484375 0.4375 1.359375 0.4375q0.828125 0 1.578125 -0.421875q0.75 -0.4375 1.1875 -1.203125q0.4375 -0.78125 0.6875 -2.21875zm9.766342 3.5q-1.40625 1.625 -2.953125 1.625q-1.375 0 -2.296875 -1.015625q-0.90625 -1.015625 -0.90625 -2.953125q0 -1.765625 0.71875 -3.21875q0.734375 -1.46875 1.8125 -2.1875q1.09375 -0.734375 2.1875 -0.734375q1.796875 0 2.71875 1.734375l1.09375 -5.203125l1.640625 0l-2.78125 13.359375l-1.53125 0l0.296875 -1.40625zm-4.515625 -2.640625q0 1.0 0.203125 1.59375q0.203125 0.578125 0.671875 0.96875q0.484375 0.375 1.171875 0.375q1.109375 0 2.03125 -1.15625q1.21875 -1.546875 1.21875 -3.828125q0 -1.140625 -0.609375 -1.78125q-0.59375 -0.65625 -1.515625 -0.65625q-0.59375 0 -1.078125 0.265625q-0.484375 0.265625 -0.96875 0.90625q-0.46875 0.625 -0.796875 1.59375q-0.328125 0.96875 -0.328125 1.71875zm14.891342 2.640625q-1.40625 1.625 -2.953125 1.625q-1.375 0 -2.296875 -1.015625q-0.90625 -1.015625 -0.90625 -2.953125q0 -1.765625 0.71875 -3.21875q0.734375 -1.46875 1.8125 -2.1875q1.09375 -0.734375 2.1875 -0.734375q1.796875 0 2.71875 1.734375l1.09375 -5.203125l1.640625 0l-2.78125 13.359375l-1.53125 0l0.296875 -1.40625zm-4.515625 -2.640625q0 1.0 0.203125 1.59375q0.203125 0.578125 0.671875 0.96875q0.484375 0.375 1.171875 0.375q1.109375 0 2.03125 -1.15625q1.21875 -1.546875 1.21875 -3.828125q0 -1.140625 -0.609375 -1.78125q-0.59375 -0.65625 -1.515625 -0.65625q-0.59375 0 -1.078125 0.265625q-0.484375 0.265625 -0.96875 0.90625q-0.46875 0.625 -0.796875 1.59375q-0.328125 0.96875 -0.328125 1.71875zm10.703842 -7.4375l0.40625 -1.875l1.625 0l-0.390625 1.875l-1.640625 0zm-2.390625 11.484375l2.015625 -9.671875l1.65625 0l-2.03125 9.671875l-1.640625 0zm4.207321 0l2.015625 -9.671875l1.5 0l-0.359375 1.6875q0.96875 -1.0 1.8125 -1.453125q0.859375 -0.453125 1.734375 -0.453125q1.1875 0 1.84375 0.640625q0.671875 0.625 0.671875 1.703125q0 0.53125 -0.234375 1.6875l-1.234375 5.859375l-1.640625 0l1.28125 -6.125q0.1875 -0.890625 0.1875 -1.328125q0 -0.484375 -0.328125 -0.78125q-0.328125 -0.296875 -0.953125 -0.296875q-1.28125 0 -2.265625 0.90625q-0.984375 0.90625 -1.453125 3.125l-0.9375 4.5l-1.640625 0zm10.281967 0.875l1.671875 0.15625q-0.03125 0.5625 0.125 0.84375q0.15625 0.28125 0.5 0.4375q0.4375 0.203125 1.15625 0.203125q1.484375 0 2.140625 -0.78125q0.4375 -0.515625 0.796875 -2.25l0.171875 -0.78125q-1.296875 1.296875 -2.734375 1.296875q-1.46875 0 -2.46875 -1.078125q-0.984375 -1.078125 -0.984375 -3.0625q0 -1.625 0.78125 -2.984375q0.78125 -1.375 1.859375 -2.0625q1.078125 -0.703125 2.203125 -0.703125q1.90625 0 2.9374847 1.796875l0.328125 -1.578125l1.515625 0l-1.953125 9.328125q-0.31248474 1.546875 -0.84373474 2.40625q-0.515625 0.859375 -1.4375 1.328125q-0.921875 0.484375 -2.140625 0.484375q-1.15625 0 -2.0 -0.3125q-0.84375 -0.296875 -1.265625 -0.875q-0.40625 -0.578125 -0.40625 -1.328125q0 -0.21875 0.046875 -0.484375zm2.0625 -5.15625q0 1.0 0.1875 1.5q0.265625 0.6875 0.765625 1.0625q0.515625 0.375 1.140625 0.375q0.8125 0 1.609375 -0.5625q0.796875 -0.578125 1.296875 -1.765625q0.5 -1.203125 0.5 -2.28125q0 -1.203125 -0.671875 -1.90625q-0.65625 -0.703125 -1.625 -0.703125q-0.609375 0 -1.171875 0.328125q-0.5625 0.3125 -1.046875 0.984375q-0.484375 0.65625 -0.734375 1.578125q-0.25 0.921875 -0.25 1.390625z" fill-rule="nonzero"/><path fill="#000000" fill-opacity="0.0" d="m72.77165 240.32808l-1.5747986 -188.7244" fill-rule="evenodd"/><path stroke="#000000" stroke-width="1.0" stroke-linejoin="round" stroke-linecap="butt" d="m72.77165 240.32808l-1.5247345 -182.72461" fill-rule="evenodd"/><path fill="#000000" stroke="#000000" stroke-width="1.0" stroke-linecap="butt" d="m72.89859 57.589684l-1.6895447 -4.5241585l-1.6138077 4.5517235z" fill-rule="evenodd"/><path fill="#000000" fill-opacity="0.0" d="m71.19685 206.38846l0 -141.16536l-42.01575 0l0 141.16536z" fill-rule="evenodd"/><path fill="#000000" d="m44.27685 74.8481l13.359375 2.78125l0 1.65625l-5.140625 -1.078125q0.90625 0.921875 1.28125 1.71875q0.390625 0.796875 0.390625 1.625q0 1.203125 -0.640625 1.859375q-0.625 0.671875 -1.65625 0.671875q-0.515625 0 -1.875 -0.28125l-5.71875 -1.203125l0 -1.640625l5.859375 1.234375q1.265625 0.25 1.59375 0.25q0.484375 0 0.78125 -0.328125q0.296875 -0.328125 0.296875 -0.9375q0 -0.890625 -0.46875 -1.703125q-0.46875 -0.8125 -1.28125 -1.28125q-0.8125 -0.453125 -2.625 -0.828125l-4.15625 -0.875l0 -1.640625zm11.484375 12.703842l1.875 0.40625l0 1.625l-1.875 -0.390625l0 -1.640625zm-11.484375 -2.390625l9.671875 2.015625l0 1.65625l-9.671875 -2.03125l0 -1.640625zm-0.875 4.113571l-0.15625 1.671875q-0.5625 -0.03125 -0.84375 0.125q-0.28125 0.15625 -0.4375 0.5q-0.203125 0.4375 -0.203125 1.15625q0 1.484375 0.78125 2.140625q0.515625 0.4375 2.25 0.796875l0.78125 0.171875q-1.296875 -1.296875 -1.296875 -2.734375q0 -1.46875 1.078125 -2.46875q1.078125 -0.984375 3.0625 -0.984375q1.625 0 2.984375 0.78125q1.375 0.78125 2.0625 1.859375q0.703125 1.078125 0.703125 2.203125q0 1.90625 -1.796875 2.9375l1.578125 0.328125l0 1.515625l-9.328125 -1.953125q-1.546875 -0.3125 -2.40625 -0.84375q-0.859375 -0.515625 -1.328125 -1.4375q-0.484375 -0.921875 -0.484375 -2.140625q0 -1.15625 0.3125 -2.0q0.296875 -0.84375 0.875 -1.265625q0.578125 -0.40625 1.328125 -0.40625q0.21875 0 0.484375 0.046875zm5.15625 2.0625q-1.0 0 -1.5 0.1875q-0.6875 0.265625 -1.0625 0.765625q-0.375 0.515625 -0.375 1.140625q0 0.8125 0.5625 1.609375q0.578125 0.796875 1.765625 1.296875q1.203125 0.5 2.28125 0.5q1.203125 0 1.90625 -0.671875q0.703125 -0.65625 0.703125 -1.625q0 -0.609375 -0.328125 -1.171875q-0.3125 -0.5625 -0.984375 -1.046875q-0.65625 -0.484375 -1.578125 -0.734375q-0.921875 -0.25 -1.390625 -0.25zm-4.28125 8.406967l13.359375 2.78125l0 1.65625l-5.140625 -1.078125q0.90625 0.921875 1.28125 1.71875q0.390625 0.796875 0.390625 1.625q0 1.203125 -0.640625 1.859375q-0.625 0.671875 -1.65625 0.671875q-0.515625 0 -1.875 -0.28125l-5.71875 -1.203125l0 -1.640625l5.859375 1.234375q1.265625 0.25 1.59375 0.25q0.484375 0 0.78125 -0.328125q0.296875 -0.328125 0.296875 -0.9375q0 -0.890625 -0.46875 -1.703125q-0.46875 -0.8125 -1.28125 -1.28125q-0.8125 -0.453125 -2.625 -0.828125l-4.15625 -0.875l0 -1.640625zm1.203125 22.074646q-0.734375 -0.859375 -1.078125 -1.65625q-0.34375 -0.78125 -0.34375 -1.6875q0 -1.34375 0.78125 -2.171875q0.796875 -0.8125 2.03125 -0.8125q0.796875 0 1.421875 0.375q0.625 0.375 1.0 0.984375q0.390625 0.609375 0.546875 1.484375q0.109375 0.5625 0.171875 2.109375q0.0625 1.5625 0.328125 2.234375q0.671875 0.1875 1.125 0.1875q0.578125 0 0.90625 -0.421875q0.453125 -0.5625 0.453125 -1.671875q0 -1.03125 -0.46875 -1.703125q-0.453125 -0.65625 -1.296875 -0.953125l0.140625 -1.671875q1.4375 0.515625 2.203125 1.609375q0.765625 1.109375 0.765625 2.796875q0 1.796875 -0.859375 2.84375q-0.625 0.796875 -1.65625 0.796875q-0.765625 0 -1.796875 -0.21875l-2.40625 -0.53125q-1.140625 -0.265625 -1.859375 -0.265625q-0.453125 0 -1.3125 0.203125l0 -1.671875q0.46875 -0.125 1.203125 -0.1875zm3.703125 0.609375q-0.140625 -0.34375 -0.21875 -0.75q-0.0625 -0.390625 -0.15625 -1.3125q-0.125 -1.4375 -0.328125 -2.03125q-0.1875 -0.59375 -0.625 -0.90625q-0.421875 -0.296875 -0.9375 -0.296875q-0.6875 0 -1.140625 0.484375q-0.4375 0.484375 -0.4375 1.359375q0 0.828125 0.421875 1.578125q0.4375 0.75 1.203125 1.1875q0.78125 0.4375 2.21875 0.6875zm-3.5 9.766342q-1.625 -1.40625 -1.625 -2.953125q0 -1.375 1.015625 -2.296875q1.015625 -0.90625 2.953125 -0.90625q1.765625 0 3.21875 0.71875q1.46875 0.734375 2.1875 1.8125q0.734375 1.09375 0.734375 2.1875q0 1.796875 -1.734375 2.71875l5.203125 1.09375l0 1.640625l-13.359375 -2.78125l0 -1.53125l1.40625 0.296875zm2.640625 -4.515625q-1.0 0 -1.59375 0.203125q-0.578125 0.203125 -0.96875 0.671875q-0.375 0.484375 -0.375 1.171875q0 1.109375 1.15625 2.03125q1.546875 1.21875 3.828125 1.21875q1.140625 0 1.78125 -0.609375q0.65625 -0.59375 0.65625 -1.515625q0 -0.59375 -0.265625 -1.078125q-0.265625 -0.484375 -0.90625 -0.96875q-0.625 -0.46875 -1.59375 -0.796875q-0.96875 -0.328125 -1.71875 -0.328125zm-2.640625 14.891342q-1.625 -1.40625 -1.625 -2.953125q0 -1.375 1.015625 -2.296875q1.015625 -0.90625 2.953125 -0.90625q1.765625 0 3.21875 0.71875q1.46875 0.734375 2.1875 1.8125q0.734375 1.09375 0.734375 2.1875q0 1.796875 -1.734375 2.71875l5.203125 1.09375l0 1.640625l-13.359375 -2.78125l0 -1.53125l1.40625 0.296875zm2.640625 -4.515625q-1.0 0 -1.59375 0.203125q-0.578125 0.203125 -0.96875 0.671875q-0.375 0.484375 -0.375 1.171875q0 1.109375 1.15625 2.03125q1.546875 1.21875 3.828125 1.21875q1.140625 0 1.78125 -0.609375q0.65625 -0.59375 0.65625 -1.515625q0 -0.59375 -0.265625 -1.078125q-0.265625 -0.484375 -0.90625 -0.96875q-0.625 -0.46875 -1.59375 -0.796875q-0.96875 -0.328125 -1.71875 -0.328125zm-4.046875 8.375717l9.671875 2.015625l0 1.453125l-1.96875 -0.40625q1.109375 0.75 1.640625 1.453125q0.546875 0.71875 0.546875 1.46875q0 0.5 -0.359375 1.21875l-1.53125 -0.671875q0.3125 -0.4375 0.3125 -0.9375q0 -0.875 -0.96875 -1.78125q-0.953125 -0.90625 -3.46875 -1.4375l-3.875 -0.8125l0 -1.5625zm3.28125 13.306427l-0.15625 1.609375q-1.1875 -0.34375 -2.265625 -1.59375q-1.078125 -1.234375 -1.078125 -2.96875q0 -1.0625 0.5 -1.96875q0.5 -0.890625 1.4375 -1.359375q0.953125 -0.46875 2.15625 -0.46875q1.59375 0 3.078125 0.734375q1.484375 0.734375 2.203125 1.890625q0.734375 1.171875 0.734375 2.53125q0 1.734375 -1.078125 2.765625q-1.0625 1.03125 -2.921875 1.03125q-0.71875 0 -1.46875 -0.125l0 -7.125q-0.28125 -0.046875 -0.5 -0.046875q-1.359375 0 -2.078125 0.625q-0.71875 0.625 -0.71875 1.53125q0 0.84375 0.546875 1.65625q0.5625 0.828125 1.609375 1.28125zm2.40625 -4.78125l0 5.421875q0.25 0.015625 0.359375 0.015625q1.234375 0 1.890625 -0.625q0.671875 -0.625 0.671875 -1.59375q0 -1.0625 -0.734375 -1.9375q-0.71875 -0.859375 -2.1875 -1.28125zm-2.375 8.219467l0.09375 1.640625q-0.703125 0 -1.21875 0.21875q-0.5 0.21875 -0.8125 0.796875q-0.3125 0.59375 -0.3125 1.375q0 1.09375 0.4375 1.640625q0.4375 0.546875 1.015625 0.546875q0.4375 0 0.8125 -0.328125q0.390625 -0.328125 0.953125 -1.640625q0.5625 -1.3125 0.78125 -1.671875q0.375 -0.609375 0.875 -0.921875q0.515625 -0.3125 1.171875 -0.3125q1.140625 0 1.953125 0.90625q0.828125 0.921875 0.828125 2.5625q0 1.828125 -0.84375 2.765625q-0.84375 0.953125 -2.21875 1.0l-0.109375 -1.609375q0.875 -0.046875 1.390625 -0.625q0.515625 -0.578125 0.515625 -1.65625q0 -0.84375 -0.40625 -1.328125q-0.390625 -0.46875 -0.84375 -0.46875q-0.453125 0 -0.796875 0.40625q-0.234375 0.28125 -0.734375 1.421875q-0.8125 1.890625 -1.28125 2.375q-0.765625 0.78125 -1.84375 0.78125q-0.71875 0 -1.421875 -0.4375q-0.6875 -0.4375 -1.109375 -1.34375q-0.40625 -0.90625 -0.40625 -2.140625q0 -1.671875 0.828125 -2.84375q0.828125 -1.1875 2.703125 -1.109375zm0 9.328125l0.09375 1.640625q-0.703125 0 -1.21875 0.21875q-0.5 0.21875 -0.8125 0.796875q-0.3125 0.59375 -0.3125 1.375q0 1.09375 0.4375 1.640625q0.4375 0.546875 1.015625 0.546875q0.4375 0 0.8125 -0.328125q0.390625 -0.328125 0.953125 -1.640625q0.5625 -1.3125 0.78125 -1.671875q0.375 -0.609375 0.875 -0.921875q0.515625 -0.3125 1.171875 -0.3125q1.140625 0 1.953125 0.90625q0.828125 0.921875 0.828125 2.5625q0 1.828125 -0.84375 2.765625q-0.84375 0.953125 -2.21875 1.0l-0.109375 -1.609375q0.875 -0.046875 1.390625 -0.625q0.515625 -0.578125 0.515625 -1.65625q0 -0.84375 -0.40625 -1.328125q-0.390625 -0.46875 -0.84375 -0.46875q-0.453125 0 -0.796875 0.40625q-0.234375 0.28125 -0.734375 1.421875q-0.8125 1.890625 -1.28125 2.375q-0.765625 0.78125 -1.84375 0.78125q-0.71875 0 -1.421875 -0.4375q-0.6875 -0.4375 -1.109375 -1.34375q-0.40625 -0.90625 -0.40625 -2.140625q0 -1.671875 0.828125 -2.84375q0.828125 -1.1875 2.703125 -1.109375z" fill-rule="nonzero"/><path fill="#a4c2f4" d="m163.89764 94.874016l121.921265 0l0 44.944878l-121.921265 0z" fill-rule="evenodd"/><path stroke="#000000" stroke-width="1.0" stroke-linejoin="round" stroke-linecap="butt" d="m163.89764 94.874016l121.921265 0l0 44.944878l-121.921265 0z" fill-rule="evenodd"/><path fill="#000000" d="m211.77126 122.86021q-1.40625 1.625 -2.953125 1.625q-1.375 0 -2.296875 -1.015625q-0.90625 -1.015625 -0.90625 -2.953125q0 -1.765625 0.71875 -3.21875q0.734375 -1.46875 1.8125 -2.1875q1.09375 -0.734375 2.1875 -0.734375q1.796875 0 2.71875 1.734375l1.09375 -5.203125l1.640625 0l-2.78125 13.359375l-1.53125 0l0.296875 -1.40625zm-4.515625 -2.640625q0 1.0 0.203125 1.59375q0.203125 0.578125 0.671875 0.96875q0.484375 0.375 1.171875 0.375q1.109375 0 2.03125 -1.15625q1.21875 -1.546875 1.21875 -3.828125q0 -1.140625 -0.609375 -1.78125q-0.59375 -0.65625 -1.515625 -0.65625q-0.59375 0 -1.078125 0.265625q-0.484375 0.265625 -0.96875 0.90625q-0.46875 0.625 -0.796875 1.59375q-0.328125 0.96875 -0.328125 1.71875zm6.563217 7.75l0 -1.1875l10.875 0l0 1.1875l-10.875 0zm14.625717 -3.703125l-1.59375 -9.671875l1.609375 0l0.828125 5.328125q0.140625 0.875 0.34375 2.84375q0.46875 -1.015625 1.203125 -2.359375l3.234375 -5.8125l1.75 0l-5.546875 9.671875l-1.828125 0zm10.75 0l2.125 -10.078125q-1.375 1.0625 -3.84375 1.71875l0.296875 -1.5q1.234375 -0.484375 2.4375 -1.28125q1.203125 -0.796875 1.796875 -1.390625q0.359375 -0.359375 0.6875 -0.875l0.96875 0l-2.796875 13.40625l-1.671875 0z" fill-rule="nonzero"/><path fill="#cfe2f3" d="m163.89764 158.94489l121.921265 0l0 21.826767l-121.921265 0z" fill-rule="evenodd"/><path stroke="#000000" stroke-width="1.0" stroke-linejoin="round" stroke-linecap="butt" d="m163.89764 158.94489l121.921265 0l0 21.826767l-121.921265 0z" fill-rule="evenodd"/><path fill="#000000" d="m205.25563 176.77826l2.78125 -13.359375l1.65625 0l-1.0 4.78125q0.78125 -0.71875 1.421875 -1.015625q0.640625 -0.296875 1.328125 -0.296875q1.359375 0 2.265625 1.015625q0.90625 1.0 0.90625 2.9375q0 1.28125 -0.375 2.359375q-0.359375 1.0625 -0.890625 1.78125q-0.53125 0.71875 -1.109375 1.15625q-0.578125 0.4375 -1.1875 0.640625q-0.59375 0.21875 -1.140625 0.21875q-0.96875 0 -1.703125 -0.5q-0.71875 -0.515625 -1.125 -1.546875l-0.390625 1.828125l-1.4375 0zm2.4375 -3.96875l-0.015625 0.3125q0 1.234375 0.59375 1.890625q0.59375 0.640625 1.484375 0.640625q0.859375 0 1.578125 -0.609375q0.734375 -0.609375 1.1875 -1.890625q0.46875 -1.28125 0.46875 -2.375q0 -1.21875 -0.59375 -1.890625q-0.578125 -0.671875 -1.4375 -0.671875q-0.90625 0 -1.65625 0.6875q-0.734375 0.6875 -1.234375 2.125q-0.375 1.0625 -0.375 1.78125zm6.125717 7.671875l0 -1.1875l10.875 0l0 1.1875l-10.875 0zm14.625717 -3.703125l-1.59375 -9.671875l1.609375 0l0.828125 5.328125q0.140625 0.875 0.34375 2.84375q0.46875 -1.015625 1.203125 -2.359375l3.234375 -5.8125l1.75 0l-5.546875 9.671875l-1.828125 0zm10.75 0l2.125 -10.078125q-1.375 1.0625 -3.84375 1.71875l0.296875 -1.5q1.234375 -0.484375 2.4375 -1.28125q1.203125 -0.796875 1.796875 -1.390625q0.359375 -0.359375 0.6875 -0.875l0.96875 0l-2.796875 13.40625l-1.671875 0z" fill-rule="nonzero"/><path fill="#ea9999" d="m163.89764 179.85301l121.921265 0l0 44.944885l-121.921265 0z" fill-rule="evenodd"/><path stroke="#000000" stroke-width="1.0" stroke-linejoin="round" stroke-linecap="butt" d="m163.89764 179.85301l121.921265 0l0 44.944885l-121.921265 0z" fill-rule="evenodd"/><path fill="#000000" d="m212.37085 209.24545l-1.59375 -9.671875l1.609375 0l0.828125 5.328125q0.140625 0.875 0.34375 2.84375q0.46875 -1.015625 1.203125 -2.359375l3.234375 -5.8125l1.75 0l-5.546875 9.671875l-1.828125 0zm6.078125 3.703125l2.796875 -13.375l1.515625 0l-0.28125 1.34375q0.84375 -0.875 1.515625 -1.21875q0.671875 -0.34375 1.421875 -0.34375q1.375 0 2.28125 1.015625q0.92189026 1.0 0.92189026 2.875q0 1.515625 -0.5 2.765625q-0.50001526 1.234375 -1.2343903 2.0q-0.71875 0.75 -1.46875 1.109375q-0.75 0.34375 -1.53125 0.34375q-1.75 0 -2.703125 -1.765625l-1.09375 5.25l-1.640625 0zm3.25 -7.65625q0 1.078125 0.15625 1.5q0.234375 0.59375 0.75 0.96875q0.515625 0.359375 1.203125 0.359375q1.421875 0 2.296875 -1.59375q0.875 -1.609375 0.875 -3.28125q0 -1.21875 -0.59375 -1.890625q-0.578125 -0.671875 -1.453125 -0.671875q-0.625 0 -1.171875 0.34375q-0.53125 0.328125 -1.0 0.984375q-0.453125 0.65625 -0.765625 1.609375q-0.296875 0.953125 -0.296875 1.671875zm11.781982 2.609375l-0.265625 1.359375q-0.59375 0.140625 -1.15625 0.140625q-0.984375 0 -1.5625 -0.46875q-0.4375 -0.375 -0.4375 -1.0q0 -0.3125 0.234375 -1.46875l1.171875 -5.625l-1.296875 0l0.265625 -1.265625l1.296875 0l0.5 -2.375l1.890625 -1.140625l-0.734375 3.515625l1.625 0l-0.28125 1.265625l-1.609375 0l-1.125 5.359375q-0.203125 1.015625 -0.203125 1.21875q0 0.28125 0.15625 0.4375q0.171875 0.15625 0.5625 0.15625q0.546875 0 0.96875 -0.109375zm1.3395538 1.34375l2.015625 -9.671875l1.453125 0l-0.40625 1.96875q0.75 -1.109375 1.453125 -1.640625q0.71875 -0.546875 1.46875 -0.546875q0.5 0 1.21875 0.359375l-0.671875 1.53125q-0.4375 -0.3125 -0.9375 -0.3125q-0.875 0 -1.78125 0.96875q-0.90625 0.953125 -1.4375 3.46875l-0.8125 3.875l-1.5625 0z" fill-rule="nonzero"/><path fill="#b4a7d6" d="m363.59842 91.25459l121.921265 0l0 29.70079l-121.921265 0z" fill-rule="evenodd"/><path stroke="#000000" stroke-width="1.0" stroke-linejoin="round" stroke-linecap="butt" d="m363.59842 91.25459l121.921265 0l0 29.70079l-121.921265 0z" fill-rule="evenodd"/><path fill="#000000" d="m417.6233 113.02499l1.765625 -8.40625l-1.484375 0l0.265625 -1.265625l1.484375 0l0.28125 -1.375q0.21875 -1.03125 0.4375 -1.484375q0.234375 -0.453125 0.75 -0.75q0.53125 -0.296875 1.4375 -0.296875q0.625 0 1.828125 0.265625l-0.296875 1.4375q-0.84375 -0.21875 -1.40625 -0.21875q-0.484375 0 -0.734375 0.25q-0.25 0.234375 -0.4375 1.125l-0.21875 1.046875l1.84375 0l-0.265625 1.265625l-1.84375 0l-1.75 8.40625l-1.65625 0zm5.433319 0q0.25 -1.1875 0.703125 -2.0q0.453125 -0.8125 1.203125 -1.53125q0.75 -0.71875 2.875 -2.421875q1.296875 -1.03125 1.765625 -1.53125q0.6875 -0.703125 1.0 -1.390625q0.203125 -0.46875 0.203125 -1.015625q0 -0.90625 -0.65625 -1.546875q-0.640625 -0.65625 -1.59375 -0.65625q-0.9375 0 -1.640625 0.65625q-0.703125 0.65625 -1.0 2.09375l-1.609375 -0.234375q0.234375 -1.78125 1.375 -2.796875q1.140625 -1.03125 2.84375 -1.03125q1.140625 0 2.0625 0.46875q0.9375 0.46875 1.390625 1.328125q0.46875 0.859375 0.46875 1.765625q0 1.328125 -0.953125 2.5625q-0.578125 0.765625 -3.421875 3.015625q-1.21875 0.96875 -1.8125 1.59375q-0.59375 0.609375 -0.90625 1.15625l5.984375 0l-0.3125 1.515625l-7.96875 0z" fill-rule="nonzero"/><path fill="#b4a7d6" d="m363.59842 120.95538l121.921265 0l0 29.70079l-121.921265 0z" fill-rule="evenodd"/><path stroke="#000000" stroke-width="1.0" stroke-linejoin="round" stroke-linecap="butt" d="m363.59842 120.95538l121.921265 0l0 29.70079l-121.921265 0z" fill-rule="evenodd"/><path fill="#000000" d="m417.6233 142.72577l1.765625 -8.40625l-1.484375 0l0.265625 -1.265625l1.484375 0l0.28125 -1.375q0.21875 -1.03125 0.4375 -1.484375q0.234375 -0.453125 0.75 -0.75q0.53125 -0.296875 1.4375 -0.296875q0.625 0 1.828125 0.265625l-0.296875 1.4375q-0.84375 -0.21875 -1.40625 -0.21875q-0.484375 0 -0.734375 0.25q-0.25 0.234375 -0.4375 1.125l-0.21875 1.046875l1.84375 0l-0.265625 1.265625l-1.84375 0l-1.75 8.40625l-1.65625 0zm8.823944 0l2.125 -10.078125q-1.375 1.0625 -3.84375 1.71875l0.296875 -1.5q1.234375 -0.484375 2.4375 -1.28125q1.203125 -0.796875 1.796875 -1.390625q0.359375 -0.359375 0.6875 -0.875l0.96875 0l-2.796875 13.40625l-1.671875 0z" fill-rule="nonzero"/><path fill="#000000" fill-opacity="0.0" d="m373.86615 57.87664l101.38583 0l0 42.015747l-101.38583 0z" fill-rule="evenodd"/><path fill="#000000" d="m402.72986 84.79664l-1.59375 -9.671875l1.609375 0l0.828125 5.328125q0.140625 0.875 0.34375 2.84375q0.46875 -1.015625 1.203125 -2.359375l3.234375 -5.8125l1.75 0l-5.546875 9.671875l-1.828125 0zm10.734375 -1.34375l-0.265625 1.359375q-0.59375 0.140625 -1.15625 0.140625q-0.984375 0 -1.5625 -0.46875q-0.4375 -0.375 -0.4375 -1.0q0 -0.3125 0.234375 -1.46875l1.171875 -5.625l-1.296875 0l0.265625 -1.265625l1.296875 0l0.5 -2.375l1.890625 -1.140625l-0.734375 3.515625l1.625 0l-0.28125 1.265625l-1.609375 0l-1.125 5.359375q-0.203125 1.015625 -0.203125 1.21875q0 0.28125 0.15625 0.4375q0.171875 0.15625 0.5625 0.15625q0.546875 0 0.96875 -0.109375zm7.8551636 0.140625q-0.859375 0.734375 -1.65625 1.078125q-0.78125 0.34375 -1.6875 0.34375q-1.34375 0 -2.171875 -0.78125q-0.8125 -0.796875 -0.8125 -2.03125q0 -0.796875 0.375 -1.421875q0.375 -0.625 0.984375 -1.0q0.609375 -0.390625 1.484375 -0.546875q0.5625 -0.109375 2.109375 -0.171875q1.5625 -0.0625 2.234375 -0.328125q0.1875 -0.671875 0.1875 -1.125q0 -0.578125 -0.421875 -0.90625q-0.5625 -0.453125 -1.671875 -0.453125q-1.03125 0 -1.703125 0.46875q-0.65625 0.453125 -0.953125 1.296875l-1.671875 -0.140625q0.515625 -1.4375 1.609375 -2.203125q1.109375 -0.765625 2.796875 -0.765625q1.796875 0 2.84375 0.859375q0.796875 0.625 0.796875 1.65625q0 0.765625 -0.21875 1.796875l-0.53125 2.40625q-0.265625 1.140625 -0.265625 1.859375q0 0.453125 0.203125 1.3125l-1.671875 0q-0.125 -0.46875 -0.1875 -1.203125zm0.609375 -3.703125q-0.34375 0.140625 -0.75 0.21875q-0.390625 0.0625 -1.3125 0.15625q-1.4375 0.125 -2.03125 0.328125q-0.59375 0.1875 -0.90625 0.625q-0.296875 0.421875 -0.296875 0.9375q0 0.6875 0.484375 1.140625q0.484375 0.4375 1.359375 0.4375q0.828125 0 1.578125 -0.421875q0.75 -0.4375 1.1875 -1.203125q0.4375 -0.78125 0.6875 -2.21875zm3.2507324 4.90625l2.78125 -13.359375l1.65625 0l-1.0 4.78125q0.78125 -0.71875 1.421875 -1.015625q0.640625 -0.296875 1.328125 -0.296875q1.359375 0 2.265625 1.015625q0.90625 1.0 0.90625 2.9375q0 1.28125 -0.375 2.359375q-0.359375 1.0625 -0.890625 1.78125q-0.53125 0.71875 -1.109375 1.15625q-0.578125 0.4375 -1.1875 0.640625q-0.59375 0.21875 -1.140625 0.21875q-0.96875 0 -1.703125 -0.5q-0.71875 -0.515625 -1.125 -1.546875l-0.390625 1.828125l-1.4375 0zm2.4375 -3.96875l-0.015625 0.3125q0 1.234375 0.59375 1.890625q0.59375 0.640625 1.484375 0.640625q0.859375 0 1.578125 -0.609375q0.734375 -0.609375 1.1875 -1.890625q0.46875 -1.28125 0.46875 -2.375q0 -1.21875 -0.59375 -1.890625q-0.578125 -0.671875 -1.4375 -0.671875q-0.90625 0 -1.65625 0.6875q-0.734375 0.6875 -1.234375 2.125q-0.375 1.0625 -0.375 1.78125zm7.797577 3.96875l2.796875 -13.359375l1.640625 0l-2.78125 13.359375l-1.65625 0zm11.379211 -3.28125l1.609375 0.15625q-0.34375 1.1875 -1.59375 2.265625q-1.234375 1.078125 -2.96875 1.078125q-1.0625 0 -1.96875 -0.5q-0.890625 -0.5 -1.359375 -1.4375q-0.46875 -0.953125 -0.46875 -2.15625q0 -1.59375 0.734375 -3.078125q0.734375 -1.484375 1.890625 -2.203125q1.171875 -0.734375 2.53125 -0.734375q1.734375 0 2.765625 1.078125q1.03125 1.0625 1.03125 2.921875q0 0.71875 -0.125 1.46875l-7.125 0q-0.046875 0.28125 -0.046875 0.5q0 1.359375 0.625 2.078125q0.625 0.71875 1.53125 0.71875q0.84375 0 1.65625 -0.546875q0.828125 -0.5625 1.28125 -1.609375zm-4.78125 -2.40625l5.421875 0q0.015625 -0.25 0.015625 -0.359375q0 -1.234375 -0.625 -1.890625q-0.625 -0.671875 -1.59375 -0.671875q-1.0625 0 -1.9375 0.734375q-0.859375 0.71875 -1.28125 2.1875z" fill-rule="nonzero"/><path fill="#000000" fill-opacity="0.0" d="m285.8189 202.32545l38.889862 0l0 -66.519684l38.905396 0" fill-rule="evenodd"/><path stroke="#000000" stroke-width="1.0" stroke-linejoin="round" stroke-linecap="butt" d="m285.8189 202.32545l38.889862 0l0 -66.519684l32.905396 0" fill-rule="evenodd"/><path fill="#000000" stroke="#000000" stroke-width="1.0" stroke-linecap="butt" d="m357.61417 137.4575l4.5381165 -1.6517334l-4.5381165 -1.6517334z" fill-rule="evenodd"/><path fill="#000000" fill-opacity="0.0" d="m99.708664 224.70341l64.18898 0.1889801" fill-rule="evenodd"/><path stroke="#000000" stroke-width="1.0" stroke-linejoin="round" stroke-linecap="butt" d="m99.708664 224.70341l58.18901 0.17132568" fill-rule="evenodd"/><path fill="#000000" stroke="#000000" stroke-width="1.0" stroke-linecap="butt" d="m157.8928 226.52644l4.542938 -1.6383514l-4.5332184 -1.6651001z" fill-rule="evenodd"/><path fill="#000000" fill-opacity="0.0" d="m104.85827 190.27306l64.18897 0l0 42.015747l-64.18897 0z" fill-rule="evenodd"/><path fill="#000000" d="m123.10827 215.89618q-1.140625 0.921875 -1.953125 1.265625q-0.796875 0.328125 -1.78125 0.328125q-1.828125 0 -2.9375 -1.0625q-1.109375 -1.078125 -1.109375 -2.703125q0 -1.0625 0.40625 -1.875q0.421875 -0.8125 1.234375 -1.46875q0.640625 -0.484375 1.859375 -1.046875q-0.46875 -1.046875 -0.5625 -1.390625q-0.140625 -0.515625 -0.140625 -1.09375q0 -0.765625 0.421875 -1.546875q0.4375 -0.796875 1.21875 -1.234375q0.796875 -0.453125 1.703125 -0.453125q1.296875 0 2.078125 0.75q0.78125 0.734375 0.78125 1.8125q0 0.890625 -0.671875 1.78125q-0.671875 0.890625 -2.640625 1.890625q1.1875 2.15625 2.296875 3.53125q0.65625 -0.8125 1.265625 -1.90625l1.4375 0.75q-0.609375 1.265625 -1.671875 2.46875q0.59375 0.765625 1.546875 1.828125l-1.25 0.984375q-0.921875 -0.78125 -1.53125 -1.609375zm-2.703125 -7.28125q1.34375 -0.6875 1.921875 -1.40625q0.390625 -0.484375 0.390625 -1.0q0 -0.546875 -0.375 -0.90625q-0.359375 -0.375 -0.890625 -0.375q-0.640625 0 -1.125 0.515625q-0.484375 0.515625 -0.484375 1.234375q0 0.859375 0.5625 1.9375zm1.75 6.015625q-1.703125 -2.234375 -2.65625 -4.0q-1.234375 0.578125 -1.765625 1.125q-0.734375 0.765625 -0.734375 1.78125q0 1.03125 0.703125 1.75q0.71875 0.71875 1.734375 0.71875q1.375 0 2.71875 -1.375zm5.052948 -1.109375q0 -2.828125 1.6718674 -4.6875q1.375 -1.53125 3.609375 -1.53125q1.75 0 2.8125 1.09375q1.078125 1.09375 1.078125 2.953125q0 1.65625 -0.671875 3.09375q-0.671875 1.4375 -1.921875 2.203125q-1.25 0.765625 -2.625 0.765625q-1.125 0 -2.046875 -0.484375q-0.921875 -0.484375 -1.4218674 -1.359375q-0.484375 -0.890625 -0.484375 -2.046875zm1.6562424 -0.15625q0 1.359375 0.65625 2.0625q0.65625 0.703125 1.65625 0.703125q0.53125 0 1.046875 -0.203125q0.53125 -0.21875 0.96875 -0.65625q0.453125 -0.4375 0.765625 -1.0q0.3125 -0.5625 0.5 -1.203125q0.28125 -0.90625 0.28125 -1.734375q0 -1.3125 -0.65625 -2.03125q-0.65625 -0.734375 -1.65625 -0.734375q-0.78125 0 -1.421875 0.375q-0.625 0.375 -1.140625 1.09375q-0.515625 0.703125 -0.765625 1.640625q-0.234375 0.9375 -0.234375 1.6875zm8.438217 3.828125l2.78125 -13.359375l1.65625 0l-1.0 4.78125q0.78125 -0.71875 1.421875 -1.015625q0.640625 -0.296875 1.328125 -0.296875q1.359375 0 2.265625 1.015625q0.90625 1.0 0.90625 2.9375q0 1.28125 -0.375 2.359375q-0.359375 1.0625 -0.890625 1.78125q-0.53125 0.71875 -1.109375 1.15625q-0.578125 0.4375 -1.1875 0.640625q-0.59375 0.21875 -1.140625 0.21875q-0.96875 0 -1.703125 -0.5q-0.71875 -0.515625 -1.125 -1.546875l-0.390625 1.828125l-1.4375 0zm2.4375 -3.96875l-0.015625 0.3125q0 1.234375 0.59375 1.890625q0.59375 0.640625 1.484375 0.640625q0.859375 0 1.578125 -0.609375q0.734375 -0.609375 1.1875 -1.890625q0.46875 -1.28125 0.46875 -2.375q0 -1.21875 -0.59375 -1.890625q-0.578125 -0.671875 -1.4375 -0.671875q-0.90625 0 -1.65625 0.6875q-0.734375 0.6875 -1.234375 2.125q-0.375 1.0625 -0.375 1.78125zm10.266342 -7.515625l0.40625 -1.875l1.625 0l-0.390625 1.875l-1.640625 0zm-5.21875 15.125l0.296875 -1.40625q0.5625 0.15625 1.0 0.15625q0.53125 0 0.84375 -0.359375q0.3125 -0.34375 0.65625 -1.9375l2.03125 -9.765625l1.640625 0l-2.09375 10.0625q-0.390625 1.890625 -0.890625 2.5625q-0.6875 0.921875 -1.90625 0.921875q-0.65625 0 -1.578125 -0.234375z" fill-rule="nonzero"/><path fill="#b7b7b7" d="m163.89764 55.60105l121.921265 0l0 21.826767l-121.921265 0z" fill-rule="evenodd"/><path stroke="#000000" stroke-width="1.0" stroke-linejoin="round" stroke-linecap="butt" d="m163.89764 55.60105l121.921265 0l0 21.826767l-121.921265 0z" fill-rule="evenodd"/><path fill="#000000" d="m191.4712 77.13756l2.796875 -13.375l1.515625 0l-0.28125 1.34375q0.84375 -0.875 1.515625 -1.21875q0.671875 -0.34375 1.421875 -0.34375q1.375 0 2.28125 1.015625q0.921875 1.0 0.921875 2.875q0 1.515625 -0.5 2.765625q-0.5 1.234375 -1.234375 2.0q-0.71875 0.75 -1.46875 1.109375q-0.75 0.34375 -1.53125 0.34375q-1.75 0 -2.703125 -1.765625l-1.09375 5.25l-1.640625 0zm3.25 -7.65625q0 1.078125 0.15625 1.5q0.234375 0.59375 0.75 0.96875q0.515625 0.359375 1.203125 0.359375q1.421875 0 2.296875 -1.59375q0.875 -1.609375 0.875 -3.28125q0 -1.21875 -0.59375 -1.890625q-0.578125 -0.671875 -1.453125 -0.671875q-0.625 0 -1.171875 0.34375q-0.53125 0.328125 -1.0 0.984375q-0.453125 0.65625 -0.765625 1.609375q-0.296875 0.953125 -0.296875 1.671875zm14.453842 2.75q-0.859375 0.734375 -1.65625 1.078125q-0.78125 0.34375 -1.6875 0.34375q-1.34375 0 -2.171875 -0.78125q-0.8125 -0.796875 -0.8125 -2.03125q0 -0.796875 0.375 -1.421875q0.375 -0.625 0.984375 -1.0q0.609375 -0.390625 1.484375 -0.546875q0.5625 -0.109375 2.109375 -0.171875q1.5625 -0.0625 2.234375 -0.328125q0.1875 -0.671875 0.1875 -1.125q0 -0.578125 -0.421875 -0.90625q-0.5625 -0.453125 -1.671875 -0.453125q-1.03125 0 -1.703125 0.46875q-0.65625 0.453125 -0.953125 1.296875l-1.671875 -0.140625q0.515625 -1.4375 1.609375 -2.203125q1.109375 -0.765625 2.796875 -0.765625q1.796875 0 2.84375 0.859375q0.796875 0.625 0.796875 1.65625q0 0.765625 -0.21875 1.796875l-0.53125 2.40625q-0.265625 1.140625 -0.265625 1.859375q0 0.453125 0.203125 1.3125l-1.671875 0q-0.125 -0.46875 -0.1875 -1.203125zm0.609375 -3.703125q-0.34375 0.140625 -0.75 0.21875q-0.390625 0.0625 -1.3125 0.15625q-1.4375 0.125 -2.03125 0.328125q-0.59375 0.1875 -0.90625 0.625q-0.296875 0.421875 -0.296875 0.9375q0 0.6875 0.484375 1.140625q0.484375 0.4375 1.359375 0.4375q0.828125 0 1.578125 -0.421875q0.75 -0.4375 1.1875 -1.203125q0.4375 -0.78125 0.6875 -2.21875zm9.766342 3.5q-1.40625 1.625 -2.953125 1.625q-1.375 0 -2.296875 -1.015625q-0.90625 -1.015625 -0.90625 -2.953125q0 -1.765625 0.71875 -3.21875q0.734375 -1.46875 1.8125 -2.1875q1.09375 -0.734375 2.1875 -0.734375q1.796875 0 2.71875 1.734375l1.09375 -5.203125l1.640625 0l-2.78125 13.359375l-1.53125 0l0.296875 -1.40625zm-4.515625 -2.640625q0 1.0 0.203125 1.59375q0.203125 0.578125 0.671875 0.96875q0.484375 0.375 1.171875 0.375q1.109375 0 2.03125 -1.15625q1.21875 -1.546875 1.21875 -3.828125q0 -1.140625 -0.609375 -1.78125q-0.59375 -0.65625 -1.515625 -0.65625q-0.59375 0 -1.078125 0.265625q-0.484375 0.265625 -0.96875 0.90625q-0.46875 0.625 -0.796875 1.59375q-0.328125 0.96875 -0.328125 1.71875zm14.891342 2.640625q-1.40625 1.625 -2.953125 1.625q-1.375 0 -2.296875 -1.015625q-0.90625 -1.015625 -0.90625 -2.953125q0 -1.765625 0.71875 -3.21875q0.734375 -1.46875 1.8125 -2.1875q1.09375 -0.734375 2.1875 -0.734375q1.796875 0 2.71875 1.734375l1.09375 -5.203125l1.640625 0l-2.78125 13.359375l-1.53125 0l0.296875 -1.40625zm-4.515625 -2.640625q0 1.0 0.203125 1.59375q0.203125 0.578125 0.671875 0.96875q0.484375 0.375 1.171875 0.375q1.109375 0 2.03125 -1.15625q1.21875 -1.546875 1.21875 -3.828125q0 -1.140625 -0.609375 -1.78125q-0.59375 -0.65625 -1.515625 -0.65625q-0.59375 0 -1.078125 0.265625q-0.484375 0.265625 -0.96875 0.90625q-0.46875 0.625 -0.796875 1.59375q-0.328125 0.96875 -0.328125 1.71875zm10.703842 -7.4375l0.40625 -1.875l1.625 0l-0.390625 1.875l-1.640625 0zm-2.390625 11.484375l2.015625 -9.671875l1.65625 0l-2.03125 9.671875l-1.640625 0zm4.207321 0l2.015625 -9.671875l1.5 0l-0.359375 1.6875q0.96875 -1.0 1.8125 -1.453125q0.859375 -0.453125 1.734375 -0.453125q1.1875 0 1.84375 0.640625q0.671875 0.625 0.671875 1.703125q0 0.53125 -0.234375 1.6875l-1.234375 5.859375l-1.640625 0l1.28125 -6.125q0.1875 -0.890625 0.1875 -1.328125q0 -0.484375 -0.328125 -0.78125q-0.328125 -0.296875 -0.953125 -0.296875q-1.28125 0 -2.265625 0.90625q-0.984375 0.90625 -1.453125 3.125l-0.9375 4.5l-1.640625 0zm10.281967 0.875l1.671875 0.15625q-0.03125 0.5625 0.125 0.84375q0.15625 0.28125 0.5 0.4375q0.4375 0.203125 1.15625 0.203125q1.484375 0 2.140625 -0.78125q0.4375 -0.515625 0.796875 -2.25l0.171875 -0.78125q-1.296875 1.296875 -2.734375 1.296875q-1.46875 0 -2.46875 -1.078125q-0.984375 -1.078125 -0.984375 -3.0625q0 -1.625 0.78125 -2.984375q0.78125 -1.375 1.859375 -2.0625q1.078125 -0.703125 2.203125 -0.703125q1.90625 0 2.9374847 1.796875l0.328125 -1.578125l1.515625 0l-1.953125 9.328125q-0.31248474 1.546875 -0.84373474 2.40625q-0.515625 0.859375 -1.4375 1.328125q-0.921875 0.484375 -2.140625 0.484375q-1.15625 0 -2.0 -0.3125q-0.84375 -0.296875 -1.265625 -0.875q-0.40625 -0.578125 -0.40625 -1.328125q0 -0.21875 0.046875 -0.484375zm2.0625 -5.15625q0 1.0 0.1875 1.5q0.265625 0.6875 0.765625 1.0625q0.515625 0.375 1.140625 0.375q0.8125 0 1.609375 -0.5625q0.796875 -0.578125 1.296875 -1.765625q0.5 -1.203125 0.5 -2.28125q0 -1.203125 -0.671875 -1.90625q-0.65625 -0.703125 -1.625 -0.703125q-0.609375 0 -1.171875 0.328125q-0.5625 0.3125 -1.046875 0.984375q-0.484375 0.65625 -0.734375 1.578125q-0.25 0.921875 -0.25 1.390625z" fill-rule="nonzero"/><path fill="#cfe2f3" d="m163.89764 77.42782l121.921265 0l0 21.826775l-121.921265 0z" fill-rule="evenodd"/><path stroke="#000000" stroke-width="1.0" stroke-linejoin="round" stroke-linecap="butt" d="m163.89764 77.42782l121.921265 0l0 21.826775l-121.921265 0z" fill-rule="evenodd"/><path fill="#000000" d="m211.77126 93.85496q-1.40625 1.625 -2.953125 1.625q-1.375 0 -2.296875 -1.015625q-0.90625 -1.015625 -0.90625 -2.953125q0 -1.765625 0.71875 -3.21875q0.734375 -1.46875 1.8125 -2.1875q1.09375 -0.734375 2.1875 -0.734375q1.796875 0 2.71875 1.734375l1.09375 -5.203125l1.640625 0l-2.78125 13.359375l-1.53125 0l0.296875 -1.40625zm-4.515625 -2.640625q0 1.0 0.203125 1.59375q0.203125 0.578125 0.671875 0.96875q0.484375 0.375 1.171875 0.375q1.109375 0 2.03125 -1.15625q1.21875 -1.546875 1.21875 -3.828125q0 -1.140625 -0.609375 -1.78125q-0.59375 -0.65625 -1.515625 -0.65625q-0.59375 0 -1.078125 0.265625q-0.484375 0.265625 -0.96875 0.90625q-0.46875 0.625 -0.796875 1.59375q-0.328125 0.96875 -0.328125 1.71875zm6.563217 7.75l0 -1.1875l10.875 0l0 1.1875l-10.875 0zm14.625717 -3.703125l-1.59375 -9.671875l1.609375 0l0.828125 5.328125q0.140625 0.875 0.34375 2.84375q0.46875 -1.015625 1.203125 -2.359375l3.234375 -5.8125l1.75 0l-5.546875 9.671875l-1.828125 0zm7.359375 0q0.25 -1.1875 0.703125 -2.0q0.453125 -0.8125 1.203125 -1.53125q0.75 -0.71875 2.875 -2.421875q1.296875 -1.03125 1.765625 -1.53125q0.6875 -0.703125 1.0 -1.390625q0.203125 -0.46875 0.203125 -1.015625q0 -0.90625 -0.65625 -1.546875q-0.640625 -0.65625 -1.59375 -0.65625q-0.9375 0 -1.640625 0.65625q-0.703125 0.65625 -1.0 2.09375l-1.609375 -0.234375q0.234375 -1.78125 1.375 -2.796875q1.140625 -1.03125 2.84375 -1.03125q1.140625 0 2.0625 0.46875q0.9375 0.46875 1.390625 1.328125q0.46875 0.859375 0.46875 1.765625q0 1.328125 -0.953125 2.5625q-0.578125 0.765625 -3.421875 3.015625q-1.21875 0.96875 -1.8125 1.59375q-0.59375 0.609375 -0.90625 1.15625l5.984375 0l-0.3125 1.515625l-7.96875 0z" fill-rule="nonzero"/></g></svg>